999
FreeCAD v0.21 33771 (Git)
  0
SECTION
  2
HEADER
  9
$ACADVER
  1
AC1014
  9
$ACADMAINTVER
 70
     9
  9
$DWGCODEPAGE
  3
ANSI_1252
  9
$TEXTSTYLE
  7
STANDARD
  9
$DIMSTYLE
  2
STANDARD
  9
$DIMTXSTY
  7
STANDARD
  9
$CMLSTYLE
  2
STANDARD
  9
$LUNITS
 70
2
  9
$INSUNITS
 70
4
  9
$PEXTMAX
 10
50
 20
50
 30
50
  9
$PEXTMIN
 10
0
 20
0
 30
0
  9
$HANDSEED
  5
FFFF
  0
ENDSEC
  0
SECTION
  2
CLASSES
  0
CLASS
  1
ACDBDICTIONARYWDFLT
  2
AcDbDictionaryWithDefault
  3
ObjectDBX Classes
 90
        0
280
     0
281
     0
  0
CLASS
  1
XRECORD
  2
AcDbXrecord
  3
ObjectDBX Classes
 90
        0
280
     0
281
     0
  0
CLASS
  1
LWPOLYLINE
  2
AcDbPolyline
  3
ObjectDBX Classes
 90
        0
280
     0
281
     1
  0
ENDSEC
  0
SECTION
  2
TABLES
  0
TABLE
  2
VPORT
  5
20
330
0
100
AcDbSymbolTable
 70
     1
  0
VPORT
  5
21
330
20
100
AcDbSymbolTableRecord
100
AcDbViewportTableRecord
  2
*ACTIVE
 70
     0
  0
ENDTAB
  0
TABLE
  2
LTYPE
  5
22
330
0
100
AcDbSymbolTable
 70
     1
  0
LTYPE
  5
23
330
21
100
AcDbSymbolTableRecord
100
AcDbLinetypeTableRecord
  2
BYBLOCK
 70
     0
  3

 72
    65
 73
     0
 40
0.0
  0
LTYPE
  5
24
330
21
100
AcDbSymbolTableRecord
100
AcDbLinetypeTableRecord
  2
BYLAYER
 70
     0
  3

 72
    65
 73
     0
 40
0.0
  0
LTYPE
  5
25
330
21
100
AcDbSymbolTableRecord
100
AcDbLinetypeTableRecord
  2
CONTINUOUS
 70
     0
  3
Solid line
 72
    65
 73
     0
 40
0.0
  0
ENDTAB
  0
TABLE
  2
LAYER
  5
AB4
330
0
100
AcDbSymbolTable
 70
3
  0
LAYER
  5
AB5
330
AB4
100
AcDbSymbolTableRecord
100
AcDbLayerTableRecord
  2
0
 70
   0
 62
   7
  6
CONTINUOUS
  0
LAYER
  5
AB6
330
AB4
100
AcDbSymbolTableRecord
100
AcDbLayerTableRecord
  2
none
 70
    0
 62
    7
  6
CONTINUOUS
  0
LAYER
  5
AB7
330
AB4
100
AcDbSymbolTableRecord
100
AcDbLayerTableRecord
  2
Fusion002
 70
    0
 62
    7
  6
CONTINUOUS
  0
ENDTAB
  0
TABLE
  2
STYLE
  5
70
330
0
100
AcDbSymbolTable
 70
     2
  0
STYLE
  5
71
330
70
100
AcDbSymbolTableRecord
100
AcDbTextStyleTableRecord
  2
STANDARD
 70
     0
 40
0.0
 41
1.0
 50
0.0
 71
     0
 42
2.5
  3
arial.ttf
  4

  0
STYLE
  5
72
330
70
100
AcDbSymbolTableRecord
100
AcDbTextStyleTableRecord
  2
ANNOTATIVE
 70
     0
 40
0.0
 41
1.0
 50
0.0
 71
     0
 42
2.5
  3
arial.ttf
  4

  0
ENDTAB
  0
TABLE
  2
VIEW
  5
73
330
0
100
AcDbSymbolTable
 70
     0
  0
ENDTAB
  0
TABLE
  2
UCS
  5
74
330
0
100
AcDbSymbolTable
 70
     0
  0
ENDTAB
  0
TABLE
  2
APPID
  5
75
330
0
100
AcDbSymbolTable
 70
     2
  0
APPID
  5
76
330
75
100
AcDbSymbolTableRecord
100
AcDbRegAppTableRecord
  2
ACAD
 70
     0
  0
APPID
  5
77
330
75
100
AcDbSymbolTableRecord
100
AcDbRegAppTableRecord
  2
ACADANNOTATIVE
 70
     0
  0
ENDTAB
  0
TABLE
  2
DIMSTYLE
  5
78
330
0
100
AcDbSymbolTable
 70
     2
  0
DIMSTYLE
105
79
330
78
100
AcDbSymbolTableRecord
100
AcDbDimStyleTableRecord
  2
STANDARD
 70
     0
  3

  4

  5

  6

  7

 40
0.0
 41
2.5
 42
0.625
 43
3.75
 44
1.25
 45
0.0
 46
0.0
 47
0.0
 48
0.0
140
2.5
141
2.5
142
0.0
143
0.03937007874016
144
1.0
145
0.0
146
1.0
147
0.625
 71
     0
 72
     0
 73
     0
 74
     0
 75
     0
 76
     0
 77
     1
 78
     8
170
     0
171
     3
172
     1
173
     0
174
     0
175
     0
176
     0
177
     0
178
     0
270
     2
271
     2
272
     2
273
     2
274
     3
340
71
275
     0
280
     0
281
     0
282
     0
283
     0
284
     8
285
     0
286
     0
287
     3
288
     0
  0
ENDTAB
  0
TABLE
  2
BLOCK_RECORD
  5
A01
330
0
100
AcDbSymbolTable
  70
5
  0
BLOCK_RECORD
  5
A02
330
A01
100
AcDbSymbolTableRecord
100
AcDbBlockTableRecord
  2
*MODEL_SPACE
  0
BLOCK_RECORD
  5
A03
330
A01
100
AcDbSymbolTableRecord
100
AcDbBlockTableRecord
  2
*PAPER_SPACE
  0
ENDTAB
  0
ENDSEC
  0
SECTION
  2
BLOCKS
  0
BLOCK
  5
A04
330
A02
100
AcDbEntity
  8
0
100
AcDbBlockBegin
  2
*MODEL_SPACE
 70
   0
 10
0
 20
0
 30
0
  3
*MODEL_SPACE
  1
 
  0
ENDBLK
  5
A05
330
A02
100
AcDbEntity
  8
0
100
AcDbBlockEnd
  0
BLOCK
  5
A06
330
A03
100
AcDbEntity
 67
1
  8
0
100
AcDbBlockBegin
  2
*PAPER_SPACE
 70
   0
 10
0
 20
0
 30
0
  3
*PAPER_SPACE
  1
 
  0
ENDBLK
  5
A07
330
A03
100
AcDbEntity
 67
    1
  8
0
100
AcDbBlockEnd
  0
ENDSEC
  0
SECTION
  2
ENTITIES
  0
ARC
  5
A08
330
A02
100
AcDbEntity
  8
Fusion002
100
AcDbCircle
 10
190
 20
-1
 30
0
 40
60
100
AcDbArc
 50
51.5747
 51
135.78
  0
LINE
  5
A09
330
A02
100
AcDbEntity
  8
Fusion002
100
AcDbLine
 10
147
 20
40.845
 30
0
 11
147
 21
40.845
 31
4
  0
ARC
  5
A0A
330
A02
100
AcDbEntity
  8
Fusion002
100
AcDbCircle
 10
190
 20
-1
 30
4
 40
60
100
AcDbArc
 50
51.5747
 51
135.78
  0
LINE
  5
A0B
330
A02
100
AcDbEntity
  8
Fusion002
100
AcDbLine
 10
227.29
 20
46.0051
 30
0
 11
227.29
 21
46.0051
 31
4
  0
ARC
  5
A0C
330
A02
100
AcDbEntity
  8
Fusion002
100
AcDbCircle
 10
190
 20
-1
 30
0
 40
60
100
AcDbArc
 50
44.22
 51
51.5747
  0
ARC
  5
A0D
330
A02
100
AcDbEntity
  8
Fusion002
100
AcDbCircle
 10
190
 20
-1
 30
0
 40
60
100
AcDbArc
 50
51.5747
 51
135.78
  0
LINE
  5
A0E
330
A02
100
AcDbEntity
  8
Fusion002
100
AcDbLine
 10
147
 20
40.845
 30
0
 11
147
 21
109
 31
0
  0
ARC
  5
A0F
330
A02
100
AcDbEntity
  8
Fusion002
100
AcDbCircle
 10
190
 20
109
 30
0
 40
43
100
AcDbArc
 50
0
 51
180
  0
LINE
  5
A10
330
A02
100
AcDbEntity
  8
Fusion002
100
AcDbLine
 10
233
 20
40.845
 30
0
 11
233
 21
109
 31
0
  0
CIRCLE
  5
A11
330
A02
100
AcDbEntity
  8
Fusion002
100
AcDbCircle
 10
190
 20
109
 40
26
  0
CIRCLE
  5
A12
330
A02
100
AcDbEntity
  8
Fusion002
100
AcDbCircle
 10
217.875
 20
133.418
 40
2.1
  0
CIRCLE
  5
A13
330
A02
100
AcDbEntity
  8
Fusion002
100
AcDbCircle
 10
162.125
 20
133.418
 40
2.1
  0
CIRCLE
  5
A14
330
A02
100
AcDbEntity
  8
Fusion002
100
AcDbCircle
 10
190
 20
71.9425
 40
2.1
  0
LINE
  5
A15
330
A02
100
AcDbEntity
  8
Fusion002
100
AcDbLine
 10
147
 20
40.845
 30
0
 11
147
 21
40.845
 31
4
  0
LINE
  5
A16
330
A02
100
AcDbEntity
  8
Fusion002
100
AcDbLine
 10
147
 20
109
 30
0
 11
147
 21
109
 31
4
  0
LINE
  5
A17
330
A02
100
AcDbEntity
  8
Fusion002
100
AcDbLine
 10
147
 20
40.845
 30
0
 11
147
 21
109
 31
0
  0
LINE
  5
A18
330
A02
100
AcDbEntity
  8
Fusion002
100
AcDbLine
 10
147
 20
40.845
 30
4
 11
147
 21
109
 31
4
  0
ARC
  5
A19
330
A02
100
AcDbEntity
  8
Fusion002
100
AcDbCircle
 10
190
 20
-1
 30
4
 40
60
100
AcDbArc
 50
44.22
 51
51.5747
  0
ARC
  5
A1A
330
A02
100
AcDbEntity
  8
Fusion002
100
AcDbCircle
 10
190
 20
-1
 30
4
 40
60
100
AcDbArc
 50
51.5747
 51
135.78
  0
LINE
  5
A1B
330
A02
100
AcDbEntity
  8
Fusion002
100
AcDbLine
 10
147
 20
40.845
 30
4
 11
147
 21
109
 31
4
  0
ARC
  5
A1C
330
A02
100
AcDbEntity
  8
Fusion002
100
AcDbCircle
 10
190
 20
109
 30
4
 40
43
100
AcDbArc
 50
0
 51
180
  0
LINE
  5
A1D
330
A02
100
AcDbEntity
  8
Fusion002
100
AcDbLine
 10
233
 20
40.845
 30
4
 11
233
 21
109
 31
4
  0
CIRCLE
  5
A1E
330
A02
100
AcDbEntity
  8
Fusion002
100
AcDbCircle
 10
190
 20
109
 40
26
  0
CIRCLE
  5
A1F
330
A02
100
AcDbEntity
  8
Fusion002
100
AcDbCircle
 10
217.875
 20
133.418
 40
2.1
  0
CIRCLE
  5
A20
330
A02
100
AcDbEntity
  8
Fusion002
100
AcDbCircle
 10
162.125
 20
133.418
 40
2.1
  0
CIRCLE
  5
A21
330
A02
100
AcDbEntity
  8
Fusion002
100
AcDbCircle
 10
190
 20
71.9425
 40
2.1
  0
LINE
  5
A22
330
A02
100
AcDbEntity
  8
Fusion002
100
AcDbLine
 10
224.555
 20
42.5965
 30
0
 11
224.555
 21
42.5965
 31
4
  0
LINE
  5
A23
330
A02
100
AcDbEntity
  8
Fusion002
100
AcDbLine
 10
227.29
 20
46.0051
 30
0
 11
227.29
 21
46.0051
 31
4
  0
ARC
  5
A24
330
A02
100
AcDbEntity
  8
Fusion002
100
AcDbCircle
 10
225.932
 20
44.2934
 30
0
 40
2.18498
100
AcDbArc
 50
-129.05
 51
51.5747
  0
ARC
  5
A25
330
A02
100
AcDbEntity
  8
Fusion002
100
AcDbCircle
 10
225.932
 20
44.2934
 30
4
 40
2.18498
100
AcDbArc
 50
-129.05
 51
51.5747
  0
ARC
  5
A26
330
A02
100
AcDbEntity
  8
Fusion002
100
AcDbCircle
 10
231.403
 20
39.2907
 30
0
 40
2.22854
100
AcDbArc
 50
44.22
 51
-136.499
  0
ARC
  5
A27
330
A02
100
AcDbEntity
  8
Fusion002
100
AcDbCircle
 10
190
 20
0
 30
0
 40
54.85
100
AcDbArc
 50
43.5006
 51
50.9503
  0
ARC
  5
A28
330
A02
100
AcDbEntity
  8
Fusion002
100
AcDbCircle
 10
225.932
 20
44.2934
 30
0
 40
2.18498
100
AcDbArc
 50
-129.05
 51
51.5747
  0
ARC
  5
A29
330
A02
100
AcDbEntity
  8
Fusion002
100
AcDbCircle
 10
190
 20
-1
 30
0
 40
60
100
AcDbArc
 50
44.22
 51
51.5747
  0
LINE
  5
A2A
330
A02
100
AcDbEntity
  8
Fusion002
100
AcDbLine
 10
233
 20
109
 30
0
 11
233
 21
109
 31
4
  0
LINE
  5
A2B
330
A02
100
AcDbEntity
  8
Fusion002
100
AcDbLine
 10
147
 20
109
 30
0
 11
147
 21
109
 31
4
  0
ARC
  5
A2C
330
A02
100
AcDbEntity
  8
Fusion002
100
AcDbCircle
 10
190
 20
109
 30
0
 40
43
100
AcDbArc
 50
0
 51
180
  0
ARC
  5
A2D
330
A02
100
AcDbEntity
  8
Fusion002
100
AcDbCircle
 10
190
 20
109
 30
4
 40
43
100
AcDbArc
 50
0
 51
180
  0
LINE
  5
A2E
330
A02
100
AcDbEntity
  8
Fusion002
100
AcDbLine
 10
233
 20
40.845
 30
0
 11
233
 21
40.845
 31
4
  0
LINE
  5
A2F
330
A02
100
AcDbEntity
  8
Fusion002
100
AcDbLine
 10
233
 20
109
 30
0
 11
233
 21
109
 31
4
  0
LINE
  5
A30
330
A02
100
AcDbEntity
  8
Fusion002
100
AcDbLine
 10
233
 20
40.845
 30
0
 11
233
 21
109
 31
0
  0
LINE
  5
A31
330
A02
100
AcDbEntity
  8
Fusion002
100
AcDbLine
 10
233
 20
40.845
 30
4
 11
233
 21
109
 31
4
  0
LINE
  5
A32
330
A02
100
AcDbEntity
  8
Fusion002
100
AcDbLine
 10
164
 20
109
 30
0
 11
164
 21
109
 31
4
  0
LINE
  5
A33
330
A02
100
AcDbEntity
  8
Fusion002
100
AcDbLine
 10
164
 20
109
 30
0
 11
164
 21
109
 31
4
  0
CIRCLE
  5
A34
330
A02
100
AcDbEntity
  8
Fusion002
100
AcDbCircle
 10
190
 20
109
 40
26
  0
CIRCLE
  5
A35
330
A02
100
AcDbEntity
  8
Fusion002
100
AcDbCircle
 10
190
 20
109
 40
26
  0
LINE
  5
A36
330
A02
100
AcDbEntity
  8
Fusion002
100
AcDbLine
 10
215.775
 20
133.418
 30
0
 11
215.775
 21
133.418
 31
4
  0
LINE
  5
A37
330
A02
100
AcDbEntity
  8
Fusion002
100
AcDbLine
 10
215.775
 20
133.418
 30
0
 11
215.775
 21
133.418
 31
4
  0
CIRCLE
  5
A38
330
A02
100
AcDbEntity
  8
Fusion002
100
AcDbCircle
 10
217.875
 20
133.418
 40
2.1
  0
CIRCLE
  5
A39
330
A02
100
AcDbEntity
  8
Fusion002
100
AcDbCircle
 10
217.875
 20
133.418
 40
2.1
  0
LINE
  5
A3A
330
A02
100
AcDbEntity
  8
Fusion002
100
AcDbLine
 10
160.025
 20
133.418
 30
0
 11
160.025
 21
133.418
 31
4
  0
LINE
  5
A3B
330
A02
100
AcDbEntity
  8
Fusion002
100
AcDbLine
 10
160.025
 20
133.418
 30
0
 11
160.025
 21
133.418
 31
4
  0
CIRCLE
  5
A3C
330
A02
100
AcDbEntity
  8
Fusion002
100
AcDbCircle
 10
162.125
 20
133.418
 40
2.1
  0
CIRCLE
  5
A3D
330
A02
100
AcDbEntity
  8
Fusion002
100
AcDbCircle
 10
162.125
 20
133.418
 40
2.1
  0
LINE
  5
A3E
330
A02
100
AcDbEntity
  8
Fusion002
100
AcDbLine
 10
187.9
 20
71.9425
 30
0
 11
187.9
 21
71.9425
 31
4
  0
LINE
  5
A3F
330
A02
100
AcDbEntity
  8
Fusion002
100
AcDbLine
 10
187.9
 20
71.9425
 30
0
 11
187.9
 21
71.9425
 31
4
  0
CIRCLE
  5
A40
330
A02
100
AcDbEntity
  8
Fusion002
100
AcDbCircle
 10
190
 20
71.9425
 40
2.1
  0
CIRCLE
  5
A41
330
A02
100
AcDbEntity
  8
Fusion002
100
AcDbCircle
 10
190
 20
71.9425
 40
2.1
  0
ARC
  5
A42
330
A02
100
AcDbEntity
  8
Fusion002
100
AcDbCircle
 10
231.403
 20
39.2907
 30
4
 40
2.22854
100
AcDbArc
 50
44.22
 51
-136.499
  0
ARC
  5
A43
330
A02
100
AcDbEntity
  8
Fusion002
100
AcDbCircle
 10
190
 20
0
 30
4
 40
54.85
100
AcDbArc
 50
43.5006
 51
50.9503
  0
ARC
  5
A44
330
A02
100
AcDbEntity
  8
Fusion002
100
AcDbCircle
 10
225.932
 20
44.2934
 30
4
 40
2.18498
100
AcDbArc
 50
-129.05
 51
51.5747
  0
ARC
  5
A45
330
A02
100
AcDbEntity
  8
Fusion002
100
AcDbCircle
 10
190
 20
-1
 30
4
 40
60
100
AcDbArc
 50
44.22
 51
51.5747
  0
ARC
  5
A46
330
A02
100
AcDbEntity
  8
Fusion002
100
AcDbCircle
 10
190
 20
0
 30
0
 40
54.85
100
AcDbArc
 50
50.9503
 51
-49.5169
  0
LINE
  5
A47
330
A02
100
AcDbEntity
  8
Fusion002
100
AcDbLine
 10
225.61
 20
-41.7187
 30
0
 11
225.61
 21
-41.7187
 31
4
  0
ARC
  5
A48
330
A02
100
AcDbEntity
  8
Fusion002
100
AcDbCircle
 10
190
 20
0
 30
4
 40
54.85
100
AcDbArc
 50
50.9503
 51
-49.5169
  0
LINE
  5
A49
330
A02
100
AcDbEntity
  8
Fusion002
100
AcDbLine
 10
224.555
 20
42.5965
 30
0
 11
224.555
 21
42.5965
 31
4
  0
LINE
  5
A4A
330
A02
100
AcDbEntity
  8
Fusion002
100
AcDbLine
 10
233
 20
40.845
 30
0
 11
233
 21
40.845
 31
4
  0
LINE
  5
A4B
330
A02
100
AcDbEntity
  8
Fusion002
100
AcDbLine
 10
229.786
 20
37.7567
 30
0
 11
229.786
 21
37.7567
 31
4
  0
ARC
  5
A4C
330
A02
100
AcDbEntity
  8
Fusion002
100
AcDbCircle
 10
231.403
 20
39.2907
 30
0
 40
2.22854
100
AcDbArc
 50
44.22
 51
-136.499
  0
ARC
  5
A4D
330
A02
100
AcDbEntity
  8
Fusion002
100
AcDbCircle
 10
231.403
 20
39.2907
 30
4
 40
2.22854
100
AcDbArc
 50
44.22
 51
-136.499
  0
ARC
  5
A4E
330
A02
100
AcDbEntity
  8
Fusion002
100
AcDbCircle
 10
190
 20
0
 30
0
 40
54.85
100
AcDbArc
 50
0
 51
43.5006
  0
ARC
  5
A4F
330
A02
100
AcDbEntity
  8
Fusion002
100
AcDbCircle
 10
190
 20
0
 30
0
 40
54.85
100
AcDbArc
 50
43.5006
 51
50.9503
  0
ARC
  5
A50
330
A02
100
AcDbEntity
  8
Fusion002
100
AcDbCircle
 10
190
 20
0
 30
0
 40
54.85
100
AcDbArc
 50
50.9503
 51
-49.5169
  0
ARC
  5
A51
330
A02
100
AcDbEntity
  8
Fusion002
100
AcDbCircle
 10
190
 20
0
 30
0
 40
54.85
100
AcDbArc
 50
-49.5169
 51
-42.7224
  0
ARC
  5
A52
330
A02
100
AcDbEntity
  8
Fusion002
100
AcDbCircle
 10
190
 20
0
 30
0
 40
54.85
100
AcDbArc
 50
-42.7224
 51
-1.40334e-14
  0
CIRCLE
  5
A53
330
A02
100
AcDbEntity
  8
Fusion002
100
AcDbCircle
 10
190
 20
27
 40
11.5
  0
CIRCLE
  5
A54
330
A02
100
AcDbEntity
  8
Fusion002
100
AcDbCircle
 10
190
 20
0
 40
6.5
  0
CIRCLE
  5
A55
330
A02
100
AcDbEntity
  8
Fusion002
100
AcDbCircle
 10
190
 20
-27
 40
4.25
  0
ARC
  5
A56
330
A02
100
AcDbEntity
  8
Fusion002
100
AcDbCircle
 10
190
 20
0
 30
4
 40
54.85
100
AcDbArc
 50
0
 51
43.5006
  0
ARC
  5
A57
330
A02
100
AcDbEntity
  8
Fusion002
100
AcDbCircle
 10
190
 20
0
 30
4
 40
54.85
100
AcDbArc
 50
43.5006
 51
50.9503
  0
ARC
  5
A58
330
A02
100
AcDbEntity
  8
Fusion002
100
AcDbCircle
 10
190
 20
0
 30
4
 40
54.85
100
AcDbArc
 50
50.9503
 51
-49.5169
  0
ARC
  5
A59
330
A02
100
AcDbEntity
  8
Fusion002
100
AcDbCircle
 10
190
 20
0
 30
4
 40
54.85
100
AcDbArc
 50
-49.5169
 51
-42.7224
  0
ARC
  5
A5A
330
A02
100
AcDbEntity
  8
Fusion002
100
AcDbCircle
 10
190
 20
0
 30
4
 40
54.85
100
AcDbArc
 50
-42.7224
 51
-1.40334e-14
  0
CIRCLE
  5
A5B
330
A02
100
AcDbEntity
  8
Fusion002
100
AcDbCircle
 10
190
 20
27
 40
11.5
  0
CIRCLE
  5
A5C
330
A02
100
AcDbEntity
  8
Fusion002
100
AcDbCircle
 10
190
 20
0
 40
6.5
  0
CIRCLE
  5
A5D
330
A02
100
AcDbEntity
  8
Fusion002
100
AcDbCircle
 10
190
 20
-27
 40
4.25
  0
LINE
  5
A5E
330
A02
100
AcDbEntity
  8
Fusion002
100
AcDbLine
 10
228.115
 20
-44.5841
 30
0
 11
228.115
 21
-44.5841
 31
4
  0
LINE
  5
A5F
330
A02
100
AcDbEntity
  8
Fusion002
100
AcDbLine
 10
225.61
 20
-41.7187
 30
0
 11
225.61
 21
-41.7187
 31
4
  0
ARC
  5
A60
330
A02
100
AcDbEntity
  8
Fusion002
100
AcDbCircle
 10
226.845
 20
-43.1661
 30
0
 40
1.90297
100
AcDbArc
 50
-48.1701
 51
130.483
  0
ARC
  5
A61
330
A02
100
AcDbEntity
  8
Fusion002
100
AcDbCircle
 10
226.845
 20
-43.1661
 30
4
 40
1.90297
100
AcDbArc
 50
-48.1701
 51
130.483
  0
ARC
  5
A62
330
A02
100
AcDbEntity
  8
Fusion002
100
AcDbCircle
 10
190
 20
0
 30
0
 40
54.85
100
AcDbArc
 50
0
 51
43.5006
  0
LINE
  5
A63
330
A02
100
AcDbEntity
  8
Fusion002
100
AcDbLine
 10
229.786
 20
37.7567
 30
0
 11
229.786
 21
37.7567
 31
4
  0
ARC
  5
A64
330
A02
100
AcDbEntity
  8
Fusion002
100
AcDbCircle
 10
190
 20
0
 30
4
 40
54.85
100
AcDbArc
 50
0
 51
43.5006
  0
LINE
  5
A65
330
A02
100
AcDbEntity
  8
Fusion002
100
AcDbLine
 10
244.85
 20
0
 30
0
 11
244.85
 21
0
 31
4
  0
ARC
  5
A66
330
A02
100
AcDbEntity
  8
Fusion002
100
AcDbCircle
 10
226.845
 20
-43.1661
 30
0
 40
1.90297
100
AcDbArc
 50
-48.1701
 51
130.483
  0
ARC
  5
A67
330
A02
100
AcDbEntity
  8
Fusion002
100
AcDbCircle
 10
190
 20
0
 30
0
 40
54.85
100
AcDbArc
 50
-49.5169
 51
-42.7224
  0
ARC
  5
A68
330
A02
100
AcDbEntity
  8
Fusion002
100
AcDbCircle
 10
231.632
 20
-38.4467
 30
0
 40
1.81869
100
AcDbArc
 50
137.278
 51
-41.2008
  0
ARC
  5
A69
330
A02
100
AcDbEntity
  8
Fusion002
100
AcDbCircle
 10
190
 20
-2
 30
0
 40
57.15
100
AcDbArc
 50
-48.1701
 51
-41.2008
  0
LINE
  5
A6A
330
A02
100
AcDbEntity
  8
Fusion002
100
AcDbLine
 10
244.85
 20
0
 30
0
 11
244.85
 21
0
 31
4
  0
ARC
  5
A6B
330
A02
100
AcDbEntity
  8
Fusion002
100
AcDbCircle
 10
190
 20
0
 30
4
 40
54.85
100
AcDbArc
 50
-42.7224
 51
-1.40334e-14
  0
LINE
  5
A6C
330
A02
100
AcDbEntity
  8
Fusion002
100
AcDbLine
 10
230.296
 20
-37.2128
 30
0
 11
230.296
 21
-37.2128
 31
4
  0
ARC
  5
A6D
330
A02
100
AcDbEntity
  8
Fusion002
100
AcDbCircle
 10
190
 20
0
 30
0
 40
54.85
100
AcDbArc
 50
-42.7224
 51
-1.40334e-14
  0
LINE
  5
A6E
330
A02
100
AcDbEntity
  8
Fusion002
100
AcDbLine
 10
201.5
 20
27
 30
0
 11
201.5
 21
27
 31
4
  0
LINE
  5
A6F
330
A02
100
AcDbEntity
  8
Fusion002
100
AcDbLine
 10
201.5
 20
27
 30
0
 11
201.5
 21
27
 31
4
  0
CIRCLE
  5
A70
330
A02
100
AcDbEntity
  8
Fusion002
100
AcDbCircle
 10
190
 20
27
 40
11.5
  0
CIRCLE
  5
A71
330
A02
100
AcDbEntity
  8
Fusion002
100
AcDbCircle
 10
190
 20
27
 40
11.5
  0
LINE
  5
A72
330
A02
100
AcDbEntity
  8
Fusion002
100
AcDbLine
 10
196.5
 20
0
 30
0
 11
196.5
 21
0
 31
4
  0
LINE
  5
A73
330
A02
100
AcDbEntity
  8
Fusion002
100
AcDbLine
 10
196.5
 20
0
 30
0
 11
196.5
 21
0
 31
4
  0
CIRCLE
  5
A74
330
A02
100
AcDbEntity
  8
Fusion002
100
AcDbCircle
 10
190
 20
0
 40
6.5
  0
CIRCLE
  5
A75
330
A02
100
AcDbEntity
  8
Fusion002
100
AcDbCircle
 10
190
 20
0
 40
6.5
  0
LINE
  5
A76
330
A02
100
AcDbEntity
  8
Fusion002
100
AcDbLine
 10
194.25
 20
-27
 30
0
 11
194.25
 21
-27
 31
4
  0
LINE
  5
A77
330
A02
100
AcDbEntity
  8
Fusion002
100
AcDbLine
 10
194.25
 20
-27
 30
0
 11
194.25
 21
-27
 31
4
  0
CIRCLE
  5
A78
330
A02
100
AcDbEntity
  8
Fusion002
100
AcDbCircle
 10
190
 20
-27
 40
4.25
  0
CIRCLE
  5
A79
330
A02
100
AcDbEntity
  8
Fusion002
100
AcDbCircle
 10
190
 20
-27
 40
4.25
  0
ARC
  5
A7A
330
A02
100
AcDbEntity
  8
Fusion002
100
AcDbCircle
 10
226.845
 20
-43.1661
 30
4
 40
1.90297
100
AcDbArc
 50
-48.1701
 51
130.483
  0
ARC
  5
A7B
330
A02
100
AcDbEntity
  8
Fusion002
100
AcDbCircle
 10
190
 20
0
 30
4
 40
54.85
100
AcDbArc
 50
-49.5169
 51
-42.7224
  0
ARC
  5
A7C
330
A02
100
AcDbEntity
  8
Fusion002
100
AcDbCircle
 10
231.632
 20
-38.4467
 30
4
 40
1.81869
100
AcDbArc
 50
137.278
 51
-41.2008
  0
ARC
  5
A7D
330
A02
100
AcDbEntity
  8
Fusion002
100
AcDbCircle
 10
190
 20
-2
 30
4
 40
57.15
100
AcDbArc
 50
-48.1701
 51
-41.2008
  0
ARC
  5
A7E
330
A02
100
AcDbEntity
  8
Fusion002
100
AcDbCircle
 10
190
 20
-2
 30
0
 40
57.15
100
AcDbArc
 50
-138.799
 51
-48.1701
  0
LINE
  5
A7F
330
A02
100
AcDbEntity
  8
Fusion002
100
AcDbLine
 10
228.115
 20
-44.5841
 30
0
 11
228.115
 21
-44.5841
 31
4
  0
ARC
  5
A80
330
A02
100
AcDbEntity
  8
Fusion002
100
AcDbCircle
 10
190
 20
-2
 30
4
 40
57.15
100
AcDbArc
 50
-138.799
 51
-48.1701
  0
LINE
  5
A81
330
A02
100
AcDbEntity
  8
Fusion002
100
AcDbLine
 10
147
 20
-39.6447
 30
0
 11
147
 21
-39.6447
 31
4
  0
LINE
  5
A82
330
A02
100
AcDbEntity
  8
Fusion002
100
AcDbLine
 10
230.296
 20
-37.2128
 30
0
 11
230.296
 21
-37.2128
 31
4
  0
LINE
  5
A83
330
A02
100
AcDbEntity
  8
Fusion002
100
AcDbLine
 10
233
 20
-39.6447
 30
0
 11
233
 21
-39.6447
 31
4
  0
ARC
  5
A84
330
A02
100
AcDbEntity
  8
Fusion002
100
AcDbCircle
 10
231.632
 20
-38.4467
 30
0
 40
1.81869
100
AcDbArc
 50
137.278
 51
-41.2008
  0
ARC
  5
A85
330
A02
100
AcDbEntity
  8
Fusion002
100
AcDbCircle
 10
231.632
 20
-38.4467
 30
4
 40
1.81869
100
AcDbArc
 50
137.278
 51
-41.2008
  0
ARC
  5
A86
330
A02
100
AcDbEntity
  8
Fusion002
100
AcDbCircle
 10
190
 20
-2
 30
0
 40
57.15
100
AcDbArc
 50
-138.799
 51
-48.1701
  0
ARC
  5
A87
330
A02
100
AcDbEntity
  8
Fusion002
100
AcDbCircle
 10
190
 20
-2
 30
0
 40
57.15
100
AcDbArc
 50
-48.1701
 51
-41.2008
  0
LINE
  5
A88
330
A02
100
AcDbEntity
  8
Fusion002
100
AcDbLine
 10
233
 20
-39.6447
 30
0
 11
233
 21
-112
 31
0
  0
ARC
  5
A89
330
A02
100
AcDbEntity
  8
Fusion002
100
AcDbCircle
 10
190
 20
-112
 30
0
 40
43
100
AcDbArc
 50
-180
 51
3.78708e-14
  0
LINE
  5
A8A
330
A02
100
AcDbEntity
  8
Fusion002
100
AcDbLine
 10
147
 20
-39.6447
 30
0
 11
147
 21
-112
 31
0
  0
CIRCLE
  5
A8B
330
A02
100
AcDbEntity
  8
Fusion002
100
AcDbCircle
 10
190
 20
-112
 40
24.25
  0
CIRCLE
  5
A8C
330
A02
100
AcDbEntity
  8
Fusion002
100
AcDbCircle
 10
217.75
 20
-128.021
 40
2.5
  0
CIRCLE
  5
A8D
330
A02
100
AcDbEntity
  8
Fusion002
100
AcDbCircle
 10
162.25
 20
-128.021
 40
2.5
  0
CIRCLE
  5
A8E
330
A02
100
AcDbEntity
  8
Fusion002
100
AcDbCircle
 10
190
 20
-79.9571
 40
2.5
  0
ARC
  5
A8F
330
A02
100
AcDbEntity
  8
Fusion002
100
AcDbCircle
 10
190
 20
-2
 30
4
 40
57.15
100
AcDbArc
 50
-138.799
 51
-48.1701
  0
ARC
  5
A90
330
A02
100
AcDbEntity
  8
Fusion002
100
AcDbCircle
 10
190
 20
-2
 30
4
 40
57.15
100
AcDbArc
 50
-48.1701
 51
-41.2008
  0
LINE
  5
A91
330
A02
100
AcDbEntity
  8
Fusion002
100
AcDbLine
 10
233
 20
-39.6447
 30
4
 11
233
 21
-112
 31
4
  0
ARC
  5
A92
330
A02
100
AcDbEntity
  8
Fusion002
100
AcDbCircle
 10
190
 20
-112
 30
4
 40
43
100
AcDbArc
 50
-180
 51
3.78708e-14
  0
LINE
  5
A93
330
A02
100
AcDbEntity
  8
Fusion002
100
AcDbLine
 10
147
 20
-39.6447
 30
4
 11
147
 21
-112
 31
4
  0
CIRCLE
  5
A94
330
A02
100
AcDbEntity
  8
Fusion002
100
AcDbCircle
 10
190
 20
-112
 40
24.25
  0
CIRCLE
  5
A95
330
A02
100
AcDbEntity
  8
Fusion002
100
AcDbCircle
 10
217.75
 20
-128.021
 40
2.5
  0
CIRCLE
  5
A96
330
A02
100
AcDbEntity
  8
Fusion002
100
AcDbCircle
 10
162.25
 20
-128.021
 40
2.5
  0
CIRCLE
  5
A97
330
A02
100
AcDbEntity
  8
Fusion002
100
AcDbCircle
 10
190
 20
-79.9571
 40
2.5
  0
LINE
  5
A98
330
A02
100
AcDbEntity
  8
Fusion002
100
AcDbLine
 10
147
 20
-39.6447
 30
0
 11
147
 21
-39.6447
 31
4
  0
LINE
  5
A99
330
A02
100
AcDbEntity
  8
Fusion002
100
AcDbLine
 10
147
 20
-112
 30
0
 11
147
 21
-112
 31
4
  0
LINE
  5
A9A
330
A02
100
AcDbEntity
  8
Fusion002
100
AcDbLine
 10
147
 20
-39.6447
 30
0
 11
147
 21
-112
 31
0
  0
LINE
  5
A9B
330
A02
100
AcDbEntity
  8
Fusion002
100
AcDbLine
 10
147
 20
-39.6447
 30
4
 11
147
 21
-112
 31
4
  0
LINE
  5
A9C
330
A02
100
AcDbEntity
  8
Fusion002
100
AcDbLine
 10
233
 20
-39.6447
 30
0
 11
233
 21
-39.6447
 31
4
  0
LINE
  5
A9D
330
A02
100
AcDbEntity
  8
Fusion002
100
AcDbLine
 10
233
 20
-112
 30
0
 11
233
 21
-112
 31
4
  0
LINE
  5
A9E
330
A02
100
AcDbEntity
  8
Fusion002
100
AcDbLine
 10
233
 20
-39.6447
 30
0
 11
233
 21
-112
 31
0
  0
LINE
  5
A9F
330
A02
100
AcDbEntity
  8
Fusion002
100
AcDbLine
 10
233
 20
-39.6447
 30
4
 11
233
 21
-112
 31
4
  0
LINE
  5
AA0
330
A02
100
AcDbEntity
  8
Fusion002
100
AcDbLine
 10
147
 20
-112
 30
0
 11
147
 21
-112
 31
4
  0
LINE
  5
AA1
330
A02
100
AcDbEntity
  8
Fusion002
100
AcDbLine
 10
233
 20
-112
 30
0
 11
233
 21
-112
 31
4
  0
ARC
  5
AA2
330
A02
100
AcDbEntity
  8
Fusion002
100
AcDbCircle
 10
190
 20
-112
 30
0
 40
43
100
AcDbArc
 50
-180
 51
3.78708e-14
  0
ARC
  5
AA3
330
A02
100
AcDbEntity
  8
Fusion002
100
AcDbCircle
 10
190
 20
-112
 30
4
 40
43
100
AcDbArc
 50
-180
 51
3.78708e-14
  0
LINE
  5
AA4
330
A02
100
AcDbEntity
  8
Fusion002
100
AcDbLine
 10
214.25
 20
-112
 30
0
 11
214.25
 21
-112
 31
4
  0
LINE
  5
AA5
330
A02
100
AcDbEntity
  8
Fusion002
100
AcDbLine
 10
214.25
 20
-112
 30
0
 11
214.25
 21
-112
 31
4
  0
CIRCLE
  5
AA6
330
A02
100
AcDbEntity
  8
Fusion002
100
AcDbCircle
 10
190
 20
-112
 40
24.25
  0
CIRCLE
  5
AA7
330
A02
100
AcDbEntity
  8
Fusion002
100
AcDbCircle
 10
190
 20
-112
 40
24.25
  0
LINE
  5
AA8
330
A02
100
AcDbEntity
  8
Fusion002
100
AcDbLine
 10
220.25
 20
-128.021
 30
0
 11
220.25
 21
-128.021
 31
4
  0
LINE
  5
AA9
330
A02
100
AcDbEntity
  8
Fusion002
100
AcDbLine
 10
220.25
 20
-128.021
 30
0
 11
220.25
 21
-128.021
 31
4
  0
CIRCLE
  5
AAA
330
A02
100
AcDbEntity
  8
Fusion002
100
AcDbCircle
 10
217.75
 20
-128.021
 40
2.5
  0
CIRCLE
  5
AAB
330
A02
100
AcDbEntity
  8
Fusion002
100
AcDbCircle
 10
217.75
 20
-128.021
 40
2.5
  0
LINE
  5
AAC
330
A02
100
AcDbEntity
  8
Fusion002
100
AcDbLine
 10
164.75
 20
-128.021
 30
0
 11
164.75
 21
-128.021
 31
4
  0
LINE
  5
AAD
330
A02
100
AcDbEntity
  8
Fusion002
100
AcDbLine
 10
164.75
 20
-128.021
 30
0
 11
164.75
 21
-128.021
 31
4
  0
CIRCLE
  5
AAE
330
A02
100
AcDbEntity
  8
Fusion002
100
AcDbCircle
 10
162.25
 20
-128.021
 40
2.5
  0
CIRCLE
  5
AAF
330
A02
100
AcDbEntity
  8
Fusion002
100
AcDbCircle
 10
162.25
 20
-128.021
 40
2.5
  0
LINE
  5
AB0
330
A02
100
AcDbEntity
  8
Fusion002
100
AcDbLine
 10
192.5
 20
-79.9571
 30
0
 11
192.5
 21
-79.9571
 31
4
  0
LINE
  5
AB1
330
A02
100
AcDbEntity
  8
Fusion002
100
AcDbLine
 10
192.5
 20
-79.9571
 30
0
 11
192.5
 21
-79.9571
 31
4
  0
CIRCLE
  5
AB2
330
A02
100
AcDbEntity
  8
Fusion002
100
AcDbCircle
 10
190
 20
-79.9571
 40
2.5
  0
CIRCLE
  5
AB3
330
A02
100
AcDbEntity
  8
Fusion002
100
AcDbCircle
 10
190
 20
-79.9571
 40
2.5
  0
ENDSEC
  0
SECTION
  2
OBJECTS
  0
DICTIONARY
  5
F000
330
0
100
AcDbDictionary
  3
ACAD_GROUP
350
F001
  0
DICTIONARY
  5
F001
330
F000
100
AcDbDictionary
  0
ENDSEC
  0
EOF